<svg xmlns="http://www.w3.org/2000/svg" viewBox="0 0 615 107" height="107" width="615" preserveAspectRatio="xMidYMid meet">
    <path fill-rule="evenodd" stroke-width="1px" stroke="rgb(0, 0, 0)" fill="rgb(255, 255, 255)" d="M563.717,64.102 C563.280,64.702 562.963,65.204 562.963,66.557 L562.963,101.569 L545.709,101.569 L545.709,66.437 C545.709,65.513 545.403,64.550 544.835,63.893 L499.321,5.791 L518.915,5.791 C530.667,21.344 549.381,46.38 555.282,54.463 C560.854,46.184 580.148,21.278 592.368,5.791 L610.682,5.791 L563.717,64.102 ZM484.609,78.499 L484.609,82.606 C484.609,89.205 484.195,97.560 486.346,101.569 L469.685,101.569 C467.336,97.439 467.499,89.974 467.499,80.983 L467.499,78.944 C467.499,65.307 462.302,59.381 439.123,59.381 L412.701,59.381 L412.701,101.569 L395.711,101.569 L395.711,5.791 L446.212,5.791 C472.764,5.791 486.915,16.466 486.915,31.413 C486.915,43.860 477.268,51.406 464.886,53.941 C475.431,56.38 484.609,61.874 484.609,78.499 ZM469.236,32.428 C469.236,22.247 460.282,16.477 442.733,16.477 L412.701,16.477 L412.701,48.696 L440.802,48.696 C460.557,48.696 469.236,43.192 469.236,32.428 ZM318.998,15.3 C290.494,15.3 278.843,34.209 278.843,53.583 C278.843,72.379 289.914,92.180 319.741,92.180 C339.665,92.180 348.399,83.717 353.255,74.413 L370.455,74.413 C364.720,90.668 348.371,102.768 319.40,102.768 C280.392,102.768 260.901,81.35 260.901,53.964 C260.901,27.946 280.415,4.415 319.687,4.415 C350.167,4.415 366.697,17.294 370.509,33.303 L353.375,33.303 C348.747,22.872 339.433,15.3 318.998,15.3 ZM184.644,102.768 C157.697,102.768 134.356,93.126 134.356,63.669 L134.356,5.791 L151.730,5.791 L151.730,63.428 C151.730,86.60 168.470,92.180 185.16,92.180 C204.379,92.180 218.39,85.581 218.39,63.428 L218.39,5.791 L235.292,5.791 L235.292,62.772 C235.292,93.846 212.102,102.768 184.644,102.768 ZM100.962,101.569 C88.630,76.362 63.467,23.400 60.673,16.110 L60.487,16.110 C57.329,24.234 49.761,40.427 39.835,61.957 C39.835,61.957 31.537,76.207 39.93,83.732 C52.660,97.244 92.446,100.984 99.821,101.569 L21.486,101.569 L4.429,101.569 L50.454,5.791 L71.549,5.791 L119.551,101.569 L101.292,101.569 L100.962,101.569 ZM101.5,101.657 C101.5,101.657 100.587,101.630 99.821,101.569 L100.962,101.569 C100.977,101.598 100.991,101.628 101.5,101.657 Z" />
</svg>